# xmcd
#
# Track frame offsets:
#	150
#	12837
#	26010
#	39485
#	52845
#	65875
#	78622
#	91640
#	105325
#	119340
#	132367
#	147825
#	163430
#	175722
#	190625
#	203640
#	218587
#	232442
#	245525
#	257612
#
# Disc length: 3608 seconds
#
# Revision: 1
# Processed by: cddbd v1.4PL0 Copyright (c) Steve Scherf et al.
# Submitted via: CDmax 2.0
#
DISCID=130e1614
DTITLE=Big Bill Broonzy - Where The Blues Began, vol 1
DYEAR=2000
DGENRE=Blues
TTITLE0=I Can't Be Satisfied
TTITLE1=Saturday Night Rub
TTITLE2=Big Bill Blues
TTITLE3=Brown Skin Shuffle
TTITLE4=Too Too Train Blues
TTITLE5=Long Tall Mama
TTITLE6=How You Want It Done
TTITLE7=Mr. Conductor Man
TTITLE8=Worrying You Off My Mind pt. 1
TTITLE9=Bull Cow Blues
TTITLE10=Friendless Blues
TTITLE11=Serve It To Me Right
TTITLE12=Mississippi River Blues
TTITLE13=C. C. Rider
TTITLE14=Midnight Special
TTITLE15=Good Jelly
TTITLE16=You May Need My Help Someday
TTITLE17=Keep Your Hands Off Her
TTITLE18=Good Liquor Gonna Carry Me Down
TTITLE19=I Want My Hands On It
EXTD=YEAR: 2000
EXTT0=(Broonzy)
EXTT1=(Broonzy)
EXTT2=(Broonzy)
EXTT3=(Broonzy)
EXTT4=(Broonzy)
EXTT5=(Broonzy/May)
EXTT6=(Broonzy)
EXTT7=(Broonzy/Williams)
EXTT8=(Broonzy)
EXTT9=(Broonzy)
EXTT10=(Broonzy)
EXTT11=(Broonzy)
EXTT12=(Broonzy)
EXTT13=(Traditional)
EXTT14=(Traditional)
EXTT15=(Broonzy)
EXTT16=
EXTT17=(Broonzy)
EXTT18=(Broonzy)
EXTT19=
PLAYORDER=
